<svg width="240" height="180" viewBox="0 0 240 180" fill="none" xmlns="http://www.w3.org/2000/svg">
  <path d="M62 150 C42 118 48 78 78 54 C104 33 144 32 170 55 C194 76 199 112 181 139"
        stroke="#F4F7F5" stroke-width="12" stroke-linecap="round"/>
  <path d="M82 32 L82 146"
        stroke="#F4F7F5" stroke-width="12" stroke-linecap="round"/>
  <path d="M82 34 H132 C166 34 189 54 189 84 C189 114 166 134 132 134 H82"
        stroke="#F4F7F5" stroke-width="12" stroke-linecap="round" stroke-linejoin="round"/>
  <path d="M80 88 H162 C184 88 202 101 211 120"
        stroke="#F2C94C" stroke-width="9" stroke-linecap="round"/>
  <path d="M211 120 L211 96"
        stroke="#F2C94C" stroke-width="9" stroke-linecap="round"/>
  <path d="M211 120 L188 116"
        stroke="#F2C94C" stroke-width="9" stroke-linecap="round"/>
  <path d="M38 134 C48 108 64 91 86 84"
        stroke="#F4F7F5" stroke-width="8" stroke-linecap="round" opacity="0.75"/>
  <path d="M30 150 C42 116 63 94 94 82"
        stroke="#F4F7F5" stroke-width="5" stroke-linecap="round" opacity="0.35"/>
</svg>
